<svg xmlns="http://www.w3.org/2000/svg" viewBox="0 0 255.5 301.27"><defs><style>.cls-1,.cls-4,.cls-7,.cls-9{fill:#fff;}.cls-1,.cls-10,.cls-3,.cls-4,.cls-5,.cls-6,.cls-7{stroke:#000;stroke-miterlimit:10;}.cls-1,.cls-3{stroke-width:0.5px;}.cls-2{fill:#ffc500;}.cls-3,.cls-5{fill:#fec907;}.cls-4,.cls-5,.cls-6{stroke-width:0.25px;}.cls-6{fill:#ed1c24;}.cls-10,.cls-7{stroke-width:2px;}.cls-8{fill:#333;}</style></defs><title>scruffy</title><g id="Layer_3" data-name="Layer 3"><path class="cls-1" d="M172.15,248.55c17.71-2.52,28.93-13.84,31.37-16.16,4.45-4.25,13.12-20.74,13.1-28.21S214.46,187.43,201,186.8s-18.82,14.14-14,19.27,7-4,7-4c.71,8.3-1.64,15.75-6.7,18.49-7.47,4.05-18.52-3.45-23.47-10.12C151.59,193.77,159,158,181.47,145.05c23.71-13.67,57.67,1.21,68.8,21.61,19.29,35.37-20,105.94-67.6,108.55-39.25,2.14-69.69-42.65-67.84-45.15C116.35,228,141.1,253,172.15,248.55Z" transform="translate(-0.04 0.12)"/><path class="cls-2" d="M187.5,211.16c5.51,1.2,6.56-9.27,6.56-9.27s-2.16,9.18-7,4.05.54-19.9,14-19.27,15.56,9.91,15.58,17.38-8.65,23.95-13.11,28.2c-2.8,2.68-13.78,13.72-31.37,16.16-25.56,3.55-46.35-13.4-46.28-13.55s27.61,22.29,60.16,17c4.51-.72,41.24-12.78,43.1-51s-37-31-45-18.37S182,210,187.5,211.16Z" transform="translate(-0.04 0.12)"/></g><g id="scruffy-body"><path class="cls-3" d="M6.63,287.28c4.47,12.89,40.61,21.6,57,2.59,1.73-6.05-7.77-22.46,23.33-21.6s22.47,14.69,24.19,19.87c9.51,10.37,55.3,7.78,57.89-6.91,0-5.18-33.51-147-33.51-146.88,0,0-118.74-2.59-109-2.59S5.22,283.2,6.63,287.28Z" transform="translate(-0.04 0.12)"/><path class="cls-4" d="M141.17,240.77c-5.62-22.36-29.88-70.07-37.52-82.05a140.47,140.47,0,0,0-9.6-13.54c-.77-6.25-15.38-5.72-16-1.4a135,135,0,0,0-9.07,14.77C62.16,171,41.28,220.32,37.24,243c-1.77,16.7,11.19,12.29,20.53,12.54,1.08,0,60.09-.49,63.79-.85C130.87,253.82,144.1,257.31,141.17,240.77Z" transform="translate(-0.04 0.12)"/><path id="left-ear" class="cls-5" d="M11.64,84.91s-13-62.58-3.27-64.62c13,12.32,39.45,20.36,44.45,28.56C57.41,56.38,11.64,84.91,11.64,84.91Z" transform="translate(-0.04 0.12)"/><path id="right-ear" class="cls-5" d="M114.35,45.17S140,17.16,146.21.09c8.69,7.05,17.35,51.23,13.37,72.43-.37,2-1,4.51-2.8,5.87C148.56,84.45,126.19,59.38,114.35,45.17Z" transform="translate(-0.04 0.12)"/><path id="Head" class="cls-1" d="M79,43.4c31.11-8.16,75.57,21.27,92.3,61.41,17.74,42.54-21.09,71.05-70.05,81.49C-15.33,211.15-41.54,75,79,43.4Z" transform="translate(-0.04 0.12)"/><path class="cls-6" d="M78.7,141.18s-6,21.89,6.57,20.79,8.22-23.67,5.31-29.75" transform="translate(-0.04 0.12)"/><path class="cls-1" d="M11.53,33.86c-.58,2.43,1.69,28.35,2.82,32.21S35,49.22,35.69,47.58,12.11,31.44,11.53,33.86Z" transform="translate(-0.04 0.12)"/><path class="cls-7" d="M52.45,135.16s-2,.17-1.7,3.12S54,152.84,63.82,152s17.33-5.48,22.36-15.81" transform="translate(-0.04 0.12)"/><path class="cls-4" d="M146.66,23.4c1.22,2.17,6.19,27.71,6.17,31.73S128.3,44.64,127.22,43.24,145.43,21.23,146.66,23.4Z" transform="translate(-0.04 0.12)"/><path class="cls-7" d="M119.12,129.18s1.82-2.78,2.25,2.75c.29,2.95-.53,14.91-10.34,15.86s-18-2.21-24.88-11.45" transform="translate(-0.04 0.12)"/><path class="cls-5" d="M.78,120.29s5.67-10.34,25-12,26.37,12.28,26.37,12.28,14.09-17.06,31.65-18.6,37.07,10.22,37.07,10.22,12.72-14.87,25.51-16,21.16,1.87,21.81,2.74C169,100,142.57,37.44,85.85,42.4,6.39,43.81.78,120.29.78,120.29Z" transform="translate(-0.04 0.12)"/><path class="cls-8" d="M86.27,139.08c-2.24.2-11.06-6.12-11.67-13.15s20.36-7.85,20.89-1.82S92.24,138.56,86.27,139.08Z" transform="translate(-0.04 0.12)"/><ellipse class="cls-9" cx="55.72" cy="89.53" rx="14.22" ry="18.98" transform="translate(-7.63 5.32) rotate(-5)"/><ellipse class="cls-10" cx="55.74" cy="89.29" rx="7.71" ry="12.01" transform="translate(-7.26 5.06) rotate(-4.76)"/><ellipse class="cls-9" cx="48.09" cy="62.6" rx="3.94" ry="6.7" transform="translate(-18.5 105.17) rotate(-85)"/><ellipse class="cls-9" cx="57.75" cy="95.33" rx="2.8" ry="3.43" transform="translate(-14.82 10.83) rotate(-9.4)"/><ellipse class="cls-9" cx="114.99" cy="58.91" rx="6.7" ry="3.94" transform="translate(-9.16 23.14) rotate(-11)"/><ellipse class="cls-9" cx="116.44" cy="85.59" rx="14.22" ry="18.98" transform="translate(-7.05 10.59) rotate(-5)"/><ellipse class="cls-10" cx="116.46" cy="85.35" rx="7.71" ry="12.01" transform="translate(-6.72 10.08) rotate(-4.76)"/><ellipse class="cls-9" cx="118.47" cy="91.38" rx="2.8" ry="3.43" transform="translate(-13.37 20.69) rotate(-9.4)"/></g></svg>