<svg xmlns="http://www.w3.org/2000/svg" viewBox="0 0 260.07 309.15"><defs><style>.cls-1,.cls-4,.cls-6,.cls-8{fill:#fff;}.cls-1,.cls-3,.cls-4,.cls-5,.cls-6,.cls-9{stroke:#000;stroke-miterlimit:10;}.cls-1,.cls-3{stroke-width:0.5px;}.cls-2{fill:#ffc500;}.cls-3,.cls-5{fill:#fec907;}.cls-4,.cls-5{stroke-width:0.25px;}.cls-6,.cls-9{stroke-width:2px;}.cls-7{fill:#333;}</style></defs><title>scruffy-listen</title><g id="Layer_3" data-name="Layer 3"><path class="cls-1" d="M172.15,248.55c17.71-2.52,28.93-13.84,31.37-16.16,4.45-4.25,13.12-20.74,13.1-28.21S214.46,187.43,201,186.8s-18.82,14.14-14,19.27,7-4,7-4c.71,8.3-1.64,15.75-6.7,18.49-7.47,4.05-18.52-3.45-23.47-10.12C151.59,193.77,159,158,181.47,145.05c23.71-13.67,57.67,1.21,68.8,21.61,19.29,35.37-20,105.94-67.6,108.55-39.25,2.14-69.69-42.65-67.84-45.15C116.35,228,141.1,253,172.15,248.55Z" transform="translate(4.54 8.01)"/><path class="cls-2" d="M187.5,211.16c5.51,1.2,6.56-9.27,6.56-9.27s-2.16,9.18-7,4.05.54-19.9,14-19.27,15.56,9.91,15.58,17.38-8.65,23.95-13.11,28.2c-2.8,2.68-13.78,13.72-31.37,16.16-25.56,3.55-46.35-13.4-46.28-13.55s27.61,22.29,60.16,17c4.51-.72,41.24-12.78,43.1-51s-37-31-45-18.37S182,210,187.5,211.16Z" transform="translate(4.54 8.01)"/></g><g id="scruffy-body"><path class="cls-3" d="M6.63,287.28c4.47,12.89,40.61,21.6,57,2.59,1.73-6.05-7.77-22.46,23.33-21.6s22.47,14.69,24.19,19.87c9.51,10.37,55.3,7.78,57.89-6.91,0-5.18-33.51-147-33.51-146.88,0,0-118.74-2.59-109-2.59S5.22,283.2,6.63,287.28Z" transform="translate(4.54 8.01)"/><path class="cls-4" d="M141.17,240.77c-5.62-22.36-29.88-70.07-37.52-82.05a140.47,140.47,0,0,0-9.6-13.54c-.77-6.25-15.38-5.72-16-1.4a135,135,0,0,0-9.07,14.77C62.16,171,41.28,220.32,37.24,243c-1.77,16.7,11.19,12.29,20.53,12.54,1.08,0,60.09-.49,63.79-.85C130.87,253.82,144.1,257.31,141.17,240.77Z" transform="translate(4.54 8.01)"/><path id="left-ear" class="cls-5" d="M11.17,97S-11.46,37.24-2.18,33.7C12.59,43.84,40,47.65,46.19,55,51.9,61.68,11.17,97,11.17,97Z" transform="translate(4.54 8.01)"/><path id="right-ear" class="cls-5" d="M106.39,41.7S127.3,10,130.81-7.81C140.5-2.2,156,40.07,155.35,61.63c-.06,2-.24,4.61-1.85,6.24C146.32,75.15,120.31,53.89,106.39,41.7Z" transform="translate(4.54 8.01)"/><path id="Head" class="cls-1" d="M71.2,45.48c29.45-12.92,78,9.19,100.77,46.21,24.18,39.25-9.71,73.48-56.44,91.45C4.28,225.93-42.91,95.54,71.2,45.48Z" transform="translate(4.54 8.01)"/><path class="cls-1" d="M3.07,46.62C2.88,49.1,9.18,74.35,10.89,78s17.8-19.88,18.19-21.6S3.27,44.13,3.07,46.62Z" transform="translate(4.54 8.01)"/><path class="cls-6" d="M59.34,140.27s-1.92.47-1.2,3.34,5.49,13.87,15,11.49S89.45,147,92.81,136" transform="translate(4.54 8.01)"/><path class="cls-4" d="M134.9,15.14c1.55,2,10.45,26.41,11.06,30.38S120.09,39,118.81,37.78,133.35,13.19,134.9,15.14Z" transform="translate(4.54 8.01)"/><path class="cls-6" d="M124.25,123.93s1.36-3,2.65,2.37c.75,2.86,1.81,14.8-7.74,17.28s-18.16.63-26.36-7.42" transform="translate(4.54 8.01)"/><path class="cls-5" d="M6,133.66s4-11.1,22.84-15.8,28,8,28,8S68,106.81,85.12,102.55s38.22,4.29,38.22,4.29S133.57,90.17,146,87.06s21.19-1.47,22-.7c1,1-34.94-56.71-90.19-42.94C-.45,57.25,6,133.66,6,133.66Z" transform="translate(4.54 8.01)"/><path class="cls-7" d="M93.35,138.85c-2.18.54-11.88-4.31-13.59-11.16s18.89-10.94,20.35-5.07S99.16,137.4,93.35,138.85Z" transform="translate(4.54 8.01)"/><ellipse class="cls-8" cx="55.43" cy="94.69" rx="14.22" ry="18.98" transform="translate(-16.72 24.23) rotate(-14)"/><ellipse class="cls-9" cx="55.41" cy="94.45" rx="7.71" ry="12.01" transform="translate(-16.34 23.9) rotate(-13.76)"/><ellipse class="cls-8" cx="43.68" cy="69.28" rx="6.7" ry="3.94" transform="translate(-0.19 11.22) rotate(-4)"/><ellipse class="cls-8" cx="58.34" cy="100.09" rx="2.8" ry="3.43" transform="translate(-24.07 31.53) rotate(-18.4)"/><ellipse class="cls-8" cx="109.18" cy="55.17" rx="6.7" ry="3.94" transform="translate(-7.75 48.67) rotate(-20)"/><ellipse class="cls-8" cx="114.78" cy="81.29" rx="14.22" ry="18.98" transform="translate(-11.72 38.19) rotate(-14)"/><ellipse class="cls-9" cx="114.76" cy="81.05" rx="7.71" ry="12.01" transform="translate(-11.45 37.63) rotate(-13.76)"/><ellipse class="cls-8" cx="117.69" cy="86.7" rx="2.8" ry="3.43" transform="translate(-16.81 49.58) rotate(-18.4)"/></g></svg>