<svg id="Layer_1" data-name="Layer 1" xmlns="http://www.w3.org/2000/svg" viewBox="0 0 255.5 301.27"><defs><style>.cls-1,.cls-4,.cls-7,.cls-9{fill:#fff;}.cls-1,.cls-10,.cls-3,.cls-4,.cls-5,.cls-6,.cls-7{stroke:#000;stroke-miterlimit:10;}.cls-1,.cls-3{stroke-width:0.5px;}.cls-2{fill:#ffc500;}.cls-3,.cls-5{fill:#fec907;}.cls-4,.cls-5,.cls-6{stroke-width:0.25px;}.cls-6{fill:#141414;}.cls-10,.cls-7{stroke-width:2px;}.cls-8{fill:#333;}</style></defs><title>scruffy-surprised</title><g id="Layer_3" data-name="Layer 3"><path class="cls-1" d="M172.11,248.67c17.71-2.52,28.93-13.84,31.37-16.16,4.45-4.25,13.12-20.74,13.1-28.21s-2.16-16.75-15.62-17.38-18.82,14.14-14,19.27,7-4,7-4c.71,8.3-1.64,15.75-6.7,18.49-7.47,4-18.52-3.45-23.47-10.12-12.24-16.67-4.83-52.44,17.64-65.39,23.71-13.67,57.67,1.21,68.8,21.61,19.29,35.37-20,105.94-67.6,108.55-39.25,2.14-69.69-42.65-67.84-45.15C116.31,228.12,141.06,253.12,172.11,248.67Z" transform="translate(0.01 0)"/><path class="cls-2" d="M187.46,211.28C193,212.48,194,202,194,202s-2.16,9.18-7,4.05.54-19.9,14-19.27,15.56,9.91,15.58,17.38-8.65,24-13.11,28.2c-2.8,2.68-13.78,13.72-31.37,16.16-25.56,3.55-46.35-13.4-46.28-13.55s27.61,22.29,60.16,17c4.51-.72,41.24-12.78,43.1-51s-37-31-45-18.37S182,210.12,187.46,211.28Z" transform="translate(0.01 0)"/></g><g id="scruffy-body"><path class="cls-3" d="M6.59,287.4c4.47,12.89,40.61,21.6,57,2.59,1.73-6.05-7.77-22.46,23.33-21.6s22.47,14.69,24.19,19.87c9.51,10.37,55.3,7.78,57.89-6.91,0-5.18-33.51-147-33.51-146.88s-118.74-2.59-109-2.59S5.18,283.32,6.59,287.4Z" transform="translate(0.01 0)"/><path class="cls-4" d="M141.13,240.89c-5.62-22.36-29.88-70.07-37.52-82A140.94,140.94,0,0,0,94,145.3c-.77-6.25-15.38-5.72-16-1.4a133.76,133.76,0,0,0-9.07,14.77c-6.82,12.45-27.7,61.77-31.74,84.45-1.77,16.7,11.19,12.29,20.53,12.54,1.08,0,60.09-.49,63.79-.85C130.83,253.94,144.06,257.43,141.13,240.89Z" transform="translate(0.01 0)"/><path id="left-ear" class="cls-5" d="M11.6,85s-13-62.58-3.27-64.62C21.33,32.73,47.78,40.77,52.78,49,57.37,56.5,11.6,85,11.6,85Z" transform="translate(0.01 0)"/><path id="right-ear" class="cls-5" d="M114.31,45.29S140,17.28,146.17.21c8.69,7.05,17.35,51.23,13.37,72.43-.37,2-1,4.51-2.8,5.87C148.52,84.57,126.15,59.5,114.31,45.29Z" transform="translate(0.01 0)"/><path id="Head" class="cls-1" d="M79,43.52c31.11-8.16,75.57,21.27,92.3,61.41,17.74,42.54-21.09,71-70,81.49C-15.37,211.27-41.58,75.12,79,43.52Z" transform="translate(0.01 0)"/><path class="cls-6" d="M88.6,142.33c-8.67,10.36-21.51,27.47-15,32.36a9,9,0,0,0,6.91,1.07C92.15,173,89,145.62,88.6,142.33Z" transform="translate(0.01 0)"/><path class="cls-1" d="M11.49,34c-.58,2.43,1.69,28.35,2.82,32.21S35,49.34,35.65,47.7,12.07,31.56,11.49,34Z" transform="translate(0.01 0)"/><path class="cls-7" d="M86.14,136.31" transform="translate(0.01 0)"/><path class="cls-4" d="M146.62,23.52c1.22,2.17,6.19,27.71,6.17,31.73s-24.53-10.49-25.61-11.89S145.39,21.35,146.62,23.52Z" transform="translate(0.01 0)"/><path class="cls-5" d="M.74,120.41s5.67-10.34,25-12,26.37,12.28,26.37,12.28,14.09-17.06,31.65-18.6,37.07,10.22,37.07,10.22,12.72-14.87,25.51-16,21.16,1.87,21.81,2.74c.81,1.07-25.62-61.49-82.34-56.53C6.35,43.93.74,120.41.74,120.41Z" transform="translate(0.01 0)"/><path class="cls-8" d="M86.23,139.2c-2.24.2-11.06-6.12-11.67-13.15s20.36-7.85,20.89-1.82S92.2,138.68,86.23,139.2Z" transform="translate(0.01 0)"/><ellipse class="cls-9" cx="55.68" cy="89.65" rx="14.22" ry="18.98" transform="translate(-7.6 5.19) rotate(-5)"/><ellipse class="cls-10" cx="55.7" cy="89.42" rx="7.71" ry="12.01" transform="translate(-7.22 4.93) rotate(-4.76)"/><ellipse class="cls-9" cx="50.05" cy="57.72" rx="3.94" ry="6.7" transform="translate(-11.8 102.55) rotate(-85)"/><ellipse class="cls-9" cx="57.72" cy="95.45" rx="2.8" ry="3.43" transform="translate(-14.81 10.71) rotate(-9.4)"/><ellipse class="cls-9" cx="116.96" cy="54.03" rx="6.7" ry="3.94" transform="translate(-8.15 23.31) rotate(-11)"/><ellipse class="cls-9" cx="116.41" cy="85.71" rx="14.22" ry="18.98" transform="translate(-7.02 10.47) rotate(-5)"/><ellipse class="cls-10" cx="116.42" cy="85.47" rx="7.71" ry="12.01" transform="translate(-6.68 9.95) rotate(-4.76)"/><ellipse class="cls-9" cx="118.43" cy="91.49" rx="2.8" ry="3.43" transform="translate(-13.35 20.57) rotate(-9.4)"/></g></svg>